<svg xmlns="http://www.w3.org/2000/svg" version="1.1" xmlns:xlink="http://www.w3.org/1999/xlink" xmlns:svgjs="http://svgjs.dev/svgjs" width="1440" height="560" preserveAspectRatio="none" viewBox="0 0 1440 560"><g mask="url(&quot;#SvgjsMask1000&quot;)" fill="none"><rect width="1440" height="560" x="0" y="0" fill="#0e2a47"></rect><path d="M47.08 191.88L112.03 229.38L112.03 304.38L47.08 341.88L-17.87 304.38L-17.87 229.38zM112.03 304.38L176.99 341.88L176.99 416.88L112.03 454.38L47.08 416.88L47.08 341.88zM47.08 416.88L112.03 454.38L112.03 529.38L47.08 566.88L-17.87 529.38L-17.87 454.38zM112.03 529.38L176.99 566.88L176.99 641.88L112.03 679.38L47.08 641.88L47.08 566.88zM241.94 304.38L306.89 341.88L306.89 416.88L241.94 454.38L176.99 416.88L176.99 341.88zM306.89 416.88L371.85 454.38L371.85 529.38L306.89 566.88L241.94 529.38L241.94 454.38zM501.76 529.38L566.71 566.88L566.71 641.88L501.76 679.38L436.8 641.88L436.8 566.88zM631.66 79.38L696.62 116.88L696.62 191.88L631.66 229.38L566.71 191.88L566.71 116.88zM826.52 191.88L891.48 229.38L891.48 304.38L826.52 341.88L761.57 304.38L761.57 229.38zM891.48 304.38L956.43 341.88L956.43 416.88L891.48 454.38L826.52 416.88L826.52 341.88zM956.43 -33.12L1021.39 4.38L1021.39 79.38L956.43 116.88L891.48 79.38L891.48 4.38zM956.43 191.88L1021.39 229.38L1021.39 304.38L956.43 341.88L891.48 304.38L891.48 229.38zM956.43 416.88L1021.39 454.38L1021.39 529.38L956.43 566.88L891.48 529.38L891.48 454.38zM1021.39 529.38L1086.34 566.88L1086.34 641.88L1021.39 679.38L956.43 641.88L956.43 566.88zM1086.34 191.88L1151.29 229.38L1151.29 304.38L1086.34 341.88L1021.39 304.38L1021.39 229.38zM1151.29 304.38L1216.25 341.88L1216.25 416.88L1151.29 454.38L1086.34 416.88L1086.34 341.88zM1151.29 529.38L1216.25 566.88L1216.25 641.88L1151.29 679.38L1086.34 641.88L1086.34 566.88zM1216.25 -33.12L1281.2 4.38L1281.2 79.38L1216.25 116.88L1151.29 79.38L1151.29 4.38zM1281.2 79.38L1346.15 116.88L1346.15 191.88L1281.2 229.38L1216.25 191.88L1216.25 116.88zM1216.25 191.88L1281.2 229.38L1281.2 304.38L1216.25 341.88L1151.29 304.38L1151.29 229.38zM1411.11 304.38L1476.06 341.88L1476.06 416.88L1411.11 454.38L1346.15 416.88L1346.15 341.88zM1476.06 -33.12L1541.02 4.38L1541.02 79.38L1476.06 116.88L1411.11 79.38L1411.11 4.38zM1476.06 191.88L1541.02 229.38L1541.02 304.38L1476.06 341.88L1411.11 304.38L1411.11 229.38z" stroke="#03305d" stroke-width="2"></path><path d="M39.58 191.88 a7.5 7.5 0 1 0 15 0 a7.5 7.5 0 1 0 -15 0zM104.53 229.38 a7.5 7.5 0 1 0 15 0 a7.5 7.5 0 1 0 -15 0zM104.53 304.38 a7.5 7.5 0 1 0 15 0 a7.5 7.5 0 1 0 -15 0zM39.58 341.88 a7.5 7.5 0 1 0 15 0 a7.5 7.5 0 1 0 -15 0zM-25.37 304.38 a7.5 7.5 0 1 0 15 0 a7.5 7.5 0 1 0 -15 0zM-25.37 229.38 a7.5 7.5 0 1 0 15 0 a7.5 7.5 0 1 0 -15 0zM169.49 341.88 a7.5 7.5 0 1 0 15 0 a7.5 7.5 0 1 0 -15 0zM169.49 416.88 a7.5 7.5 0 1 0 15 0 a7.5 7.5 0 1 0 -15 0zM104.53 454.38 a7.5 7.5 0 1 0 15 0 a7.5 7.5 0 1 0 -15 0zM39.58 416.88 a7.5 7.5 0 1 0 15 0 a7.5 7.5 0 1 0 -15 0zM104.53 529.38 a7.5 7.5 0 1 0 15 0 a7.5 7.5 0 1 0 -15 0zM39.58 566.88 a7.5 7.5 0 1 0 15 0 a7.5 7.5 0 1 0 -15 0zM-25.37 529.38 a7.5 7.5 0 1 0 15 0 a7.5 7.5 0 1 0 -15 0zM-25.37 454.38 a7.5 7.5 0 1 0 15 0 a7.5 7.5 0 1 0 -15 0zM169.49 566.88 a7.5 7.5 0 1 0 15 0 a7.5 7.5 0 1 0 -15 0zM169.49 641.88 a7.5 7.5 0 1 0 15 0 a7.5 7.5 0 1 0 -15 0zM104.53 679.38 a7.5 7.5 0 1 0 15 0 a7.5 7.5 0 1 0 -15 0zM39.58 641.88 a7.5 7.5 0 1 0 15 0 a7.5 7.5 0 1 0 -15 0zM234.44 304.38 a7.5 7.5 0 1 0 15 0 a7.5 7.5 0 1 0 -15 0zM299.39 341.88 a7.5 7.5 0 1 0 15 0 a7.5 7.5 0 1 0 -15 0zM299.39 416.88 a7.5 7.5 0 1 0 15 0 a7.5 7.5 0 1 0 -15 0zM234.44 454.38 a7.5 7.5 0 1 0 15 0 a7.5 7.5 0 1 0 -15 0zM364.35 454.38 a7.5 7.5 0 1 0 15 0 a7.5 7.5 0 1 0 -15 0zM364.35 529.38 a7.5 7.5 0 1 0 15 0 a7.5 7.5 0 1 0 -15 0zM299.39 566.88 a7.5 7.5 0 1 0 15 0 a7.5 7.5 0 1 0 -15 0zM234.44 529.38 a7.5 7.5 0 1 0 15 0 a7.5 7.5 0 1 0 -15 0zM494.26 529.38 a7.5 7.5 0 1 0 15 0 a7.5 7.5 0 1 0 -15 0zM559.21 566.88 a7.5 7.5 0 1 0 15 0 a7.5 7.5 0 1 0 -15 0zM559.21 641.88 a7.5 7.5 0 1 0 15 0 a7.5 7.5 0 1 0 -15 0zM494.26 679.38 a7.5 7.5 0 1 0 15 0 a7.5 7.5 0 1 0 -15 0zM429.3 641.88 a7.5 7.5 0 1 0 15 0 a7.5 7.5 0 1 0 -15 0zM429.3 566.88 a7.5 7.5 0 1 0 15 0 a7.5 7.5 0 1 0 -15 0zM624.16 79.38 a7.5 7.5 0 1 0 15 0 a7.5 7.5 0 1 0 -15 0zM689.12 116.88 a7.5 7.5 0 1 0 15 0 a7.5 7.5 0 1 0 -15 0zM689.12 191.88 a7.5 7.5 0 1 0 15 0 a7.5 7.5 0 1 0 -15 0zM624.16 229.38 a7.5 7.5 0 1 0 15 0 a7.5 7.5 0 1 0 -15 0zM559.21 191.88 a7.5 7.5 0 1 0 15 0 a7.5 7.5 0 1 0 -15 0zM559.21 116.88 a7.5 7.5 0 1 0 15 0 a7.5 7.5 0 1 0 -15 0zM819.02 191.88 a7.5 7.5 0 1 0 15 0 a7.5 7.5 0 1 0 -15 0zM883.98 229.38 a7.5 7.5 0 1 0 15 0 a7.5 7.5 0 1 0 -15 0zM883.98 304.38 a7.5 7.5 0 1 0 15 0 a7.5 7.5 0 1 0 -15 0zM819.02 341.88 a7.5 7.5 0 1 0 15 0 a7.5 7.5 0 1 0 -15 0zM754.07 304.38 a7.5 7.5 0 1 0 15 0 a7.5 7.5 0 1 0 -15 0zM754.07 229.38 a7.5 7.5 0 1 0 15 0 a7.5 7.5 0 1 0 -15 0zM948.93 341.88 a7.5 7.5 0 1 0 15 0 a7.5 7.5 0 1 0 -15 0zM948.93 416.88 a7.5 7.5 0 1 0 15 0 a7.5 7.5 0 1 0 -15 0zM883.98 454.38 a7.5 7.5 0 1 0 15 0 a7.5 7.5 0 1 0 -15 0zM819.02 416.88 a7.5 7.5 0 1 0 15 0 a7.5 7.5 0 1 0 -15 0zM948.93 -33.12 a7.5 7.5 0 1 0 15 0 a7.5 7.5 0 1 0 -15 0zM1013.89 4.38 a7.5 7.5 0 1 0 15 0 a7.5 7.5 0 1 0 -15 0zM1013.89 79.38 a7.5 7.5 0 1 0 15 0 a7.5 7.5 0 1 0 -15 0zM948.93 116.88 a7.5 7.5 0 1 0 15 0 a7.5 7.5 0 1 0 -15 0zM883.98 79.38 a7.5 7.5 0 1 0 15 0 a7.5 7.5 0 1 0 -15 0zM883.98 4.38 a7.5 7.5 0 1 0 15 0 a7.5 7.5 0 1 0 -15 0zM948.93 191.88 a7.5 7.5 0 1 0 15 0 a7.5 7.5 0 1 0 -15 0zM1013.89 229.38 a7.5 7.5 0 1 0 15 0 a7.5 7.5 0 1 0 -15 0zM1013.89 304.38 a7.5 7.5 0 1 0 15 0 a7.5 7.5 0 1 0 -15 0zM1013.89 454.38 a7.5 7.5 0 1 0 15 0 a7.5 7.5 0 1 0 -15 0zM1013.89 529.38 a7.5 7.5 0 1 0 15 0 a7.5 7.5 0 1 0 -15 0zM948.93 566.88 a7.5 7.5 0 1 0 15 0 a7.5 7.5 0 1 0 -15 0zM883.98 529.38 a7.5 7.5 0 1 0 15 0 a7.5 7.5 0 1 0 -15 0zM1078.84 566.88 a7.5 7.5 0 1 0 15 0 a7.5 7.5 0 1 0 -15 0zM1078.84 641.88 a7.5 7.5 0 1 0 15 0 a7.5 7.5 0 1 0 -15 0zM1013.89 679.38 a7.5 7.5 0 1 0 15 0 a7.5 7.5 0 1 0 -15 0zM948.93 641.88 a7.5 7.5 0 1 0 15 0 a7.5 7.5 0 1 0 -15 0zM1078.84 191.88 a7.5 7.5 0 1 0 15 0 a7.5 7.5 0 1 0 -15 0zM1143.79 229.38 a7.5 7.5 0 1 0 15 0 a7.5 7.5 0 1 0 -15 0zM1143.79 304.38 a7.5 7.5 0 1 0 15 0 a7.5 7.5 0 1 0 -15 0zM1078.84 341.88 a7.5 7.5 0 1 0 15 0 a7.5 7.5 0 1 0 -15 0zM1208.75 341.88 a7.5 7.5 0 1 0 15 0 a7.5 7.5 0 1 0 -15 0zM1208.75 416.88 a7.5 7.5 0 1 0 15 0 a7.5 7.5 0 1 0 -15 0zM1143.79 454.38 a7.5 7.5 0 1 0 15 0 a7.5 7.5 0 1 0 -15 0zM1078.84 416.88 a7.5 7.5 0 1 0 15 0 a7.5 7.5 0 1 0 -15 0zM1143.79 529.38 a7.5 7.5 0 1 0 15 0 a7.5 7.5 0 1 0 -15 0zM1208.75 566.88 a7.5 7.5 0 1 0 15 0 a7.5 7.5 0 1 0 -15 0zM1208.75 641.88 a7.5 7.5 0 1 0 15 0 a7.5 7.5 0 1 0 -15 0zM1143.79 679.38 a7.5 7.5 0 1 0 15 0 a7.5 7.5 0 1 0 -15 0zM1208.75 -33.12 a7.5 7.5 0 1 0 15 0 a7.5 7.5 0 1 0 -15 0zM1273.7 4.38 a7.5 7.5 0 1 0 15 0 a7.5 7.5 0 1 0 -15 0zM1273.7 79.38 a7.5 7.5 0 1 0 15 0 a7.5 7.5 0 1 0 -15 0zM1208.75 116.88 a7.5 7.5 0 1 0 15 0 a7.5 7.5 0 1 0 -15 0zM1143.79 79.38 a7.5 7.5 0 1 0 15 0 a7.5 7.5 0 1 0 -15 0zM1143.79 4.38 a7.5 7.5 0 1 0 15 0 a7.5 7.5 0 1 0 -15 0zM1338.65 116.88 a7.5 7.5 0 1 0 15 0 a7.5 7.5 0 1 0 -15 0zM1338.65 191.88 a7.5 7.5 0 1 0 15 0 a7.5 7.5 0 1 0 -15 0zM1273.7 229.38 a7.5 7.5 0 1 0 15 0 a7.5 7.5 0 1 0 -15 0zM1208.75 191.88 a7.5 7.5 0 1 0 15 0 a7.5 7.5 0 1 0 -15 0zM1273.7 304.38 a7.5 7.5 0 1 0 15 0 a7.5 7.5 0 1 0 -15 0zM1403.61 304.38 a7.5 7.5 0 1 0 15 0 a7.5 7.5 0 1 0 -15 0zM1468.56 341.88 a7.5 7.5 0 1 0 15 0 a7.5 7.5 0 1 0 -15 0zM1468.56 416.88 a7.5 7.5 0 1 0 15 0 a7.5 7.5 0 1 0 -15 0zM1403.61 454.38 a7.5 7.5 0 1 0 15 0 a7.5 7.5 0 1 0 -15 0zM1338.65 416.88 a7.5 7.5 0 1 0 15 0 a7.5 7.5 0 1 0 -15 0zM1338.65 341.88 a7.5 7.5 0 1 0 15 0 a7.5 7.5 0 1 0 -15 0zM1468.56 -33.12 a7.5 7.5 0 1 0 15 0 a7.5 7.5 0 1 0 -15 0zM1533.52 4.38 a7.5 7.5 0 1 0 15 0 a7.5 7.5 0 1 0 -15 0zM1533.52 79.38 a7.5 7.5 0 1 0 15 0 a7.5 7.5 0 1 0 -15 0zM1468.56 116.88 a7.5 7.5 0 1 0 15 0 a7.5 7.5 0 1 0 -15 0zM1403.61 79.38 a7.5 7.5 0 1 0 15 0 a7.5 7.5 0 1 0 -15 0zM1403.61 4.38 a7.5 7.5 0 1 0 15 0 a7.5 7.5 0 1 0 -15 0zM1468.56 191.88 a7.5 7.5 0 1 0 15 0 a7.5 7.5 0 1 0 -15 0zM1533.52 229.38 a7.5 7.5 0 1 0 15 0 a7.5 7.5 0 1 0 -15 0zM1533.52 304.38 a7.5 7.5 0 1 0 15 0 a7.5 7.5 0 1 0 -15 0zM1403.61 229.38 a7.5 7.5 0 1 0 15 0 a7.5 7.5 0 1 0 -15 0z" fill="#03305d"></path><path d="M101.08 292.66L144.38 317.66L144.38 367.66L101.08 392.66L57.77 367.66L57.77 317.66zM187.68 -7.34L230.98 17.66L230.98 67.66L187.68 92.66L144.38 67.66L144.38 17.66zM187.68 142.66L230.98 167.66L230.98 217.66L187.68 242.66L144.38 217.66L144.38 167.66zM230.98 367.66L274.29 392.66L274.29 442.66L230.98 467.66L187.68 442.66L187.68 392.66zM317.59 217.66L360.89 242.66L360.89 292.66L317.59 317.66L274.29 292.66L274.29 242.66zM404.19 67.66L447.5 92.66L447.5 142.66L404.19 167.66L360.89 142.66L360.89 92.66zM447.5 142.66L490.8 167.66L490.8 217.66L447.5 242.66L404.19 217.66L404.19 167.66zM447.5 292.66L490.8 317.66L490.8 367.66L447.5 392.66L404.19 367.66L404.19 317.66zM490.8 367.66L534.1 392.66L534.1 442.66L490.8 467.66L447.5 442.66L447.5 392.66zM620.71 142.66L664.01 167.66L664.01 217.66L620.71 242.66L577.4 217.66L577.4 167.66zM664.01 217.66L707.31 242.66L707.31 292.66L664.01 317.66L620.71 292.66L620.71 242.66zM664.01 517.66L707.31 542.66L707.31 592.66L664.01 617.66L620.71 592.66L620.71 542.66zM707.31 142.66L750.61 167.66L750.61 217.66L707.31 242.66L664.01 217.66L664.01 167.66zM837.22 67.66L880.52 92.66L880.52 142.66L837.22 167.66L793.92 142.66L793.92 92.66zM837.22 517.66L880.52 542.66L880.52 592.66L837.22 617.66L793.92 592.66L793.92 542.66zM967.13 -7.34L1010.43 17.66L1010.43 67.66L967.13 92.66L923.82 67.66L923.82 17.66zM967.13 442.66L1010.43 467.66L1010.43 517.66L967.13 542.66L923.82 517.66L923.82 467.66zM1010.43 517.66L1053.73 542.66L1053.73 592.66L1010.43 617.66L967.13 592.66L967.13 542.66zM1097.03 367.66L1140.34 392.66L1140.34 442.66L1097.03 467.66L1053.73 442.66L1053.73 392.66zM1097.03 517.66L1140.34 542.66L1140.34 592.66L1097.03 617.66L1053.73 592.66L1053.73 542.66zM1183.64 217.66L1226.94 242.66L1226.94 292.66L1183.64 317.66L1140.34 292.66L1140.34 242.66zM1140.34 292.66L1183.64 317.66L1183.64 367.66L1140.34 392.66L1097.03 367.66L1097.03 317.66zM1140.34 442.66L1183.64 467.66L1183.64 517.66L1140.34 542.66L1097.03 517.66L1097.03 467.66zM1183.64 517.66L1226.94 542.66L1226.94 592.66L1183.64 617.66L1140.34 592.66L1140.34 542.66zM1270.24 217.66L1313.55 242.66L1313.55 292.66L1270.24 317.66L1226.94 292.66L1226.94 242.66zM1313.55 142.66L1356.85 167.66L1356.85 217.66L1313.55 242.66L1270.24 217.66L1270.24 167.66zM1356.85 367.66L1400.15 392.66L1400.15 442.66L1356.85 467.66L1313.55 442.66L1313.55 392.66zM1443.45 517.66L1486.76 542.66L1486.76 592.66L1443.45 617.66L1400.15 592.66L1400.15 542.66z" stroke="rgba(6, 80, 156, 0.93)" stroke-width="2"></path></g><defs><mask id="SvgjsMask1000"><rect width="1440" height="560" fill="#ffffff"></rect></mask></defs></svg>